<svg width="507" height="514" viewBox="0 0 507 514" fill="none" xmlns="http://www.w3.org/2000/svg">
<path d="M412.326 162.991C437.206 206.084 443.951 257.295 431.078 305.361C418.205 353.427 386.769 394.412 343.682 419.302C300.595 444.193 249.386 450.951 201.317 438.09C153.248 425.23 112.255 393.803 87.3534 350.723C62.452 307.642 55.6811 256.434 68.5298 208.362C81.3785 160.29 112.795 119.289 155.869 94.377C198.944 69.4649 250.149 62.6812 298.225 75.5179C346.3 88.3546 387.309 119.761 412.232 162.829" stroke="#911F8C" stroke-opacity="0.75" stroke-width="4.75" stroke-miterlimit="10"/>
<path d="M384.074 323.98C373.094 345.929 356.899 364.851 336.909 379.09C316.919 393.328 293.743 402.449 269.411 405.652C245.078 408.855 220.332 406.044 197.337 397.465C174.343 388.885 153.804 374.799 137.517 356.44" stroke="#911F8C" stroke-opacity="0.75" stroke-width="4.75" stroke-miterlimit="10"/>
<path d="M107.39 304.259C98.0986 276.367 97.202 246.36 104.811 217.962C112.42 189.565 128.2 164.027 150.193 144.517" stroke="#911F8C" stroke-opacity="0.75" stroke-width="4.75" stroke-miterlimit="10"/>
<path d="M202.373 114.39C220.53 108.342 239.676 105.821 258.779 106.964" stroke="#911F8C" stroke-opacity="0.75" stroke-width="4.75" stroke-miterlimit="10"/>
<path d="M316.979 122.559C334.095 131.121 349.416 142.877 362.116 157.193" stroke="#911F8C" stroke-opacity="0.75" stroke-width="4.75" stroke-miterlimit="10"/>
<path d="M392.242 209.374C398.29 227.53 400.811 246.676 399.668 265.78" stroke="#911F8C" stroke-opacity="0.75" stroke-width="4.75" stroke-miterlimit="10"/>
<path d="M333.724 348.106C337.306 354.312 338.278 361.686 336.424 368.607C334.57 375.529 330.044 381.431 323.839 385.015C317.634 388.599 310.26 389.572 303.338 387.72C296.416 385.869 290.514 381.343 286.928 375.139C283.342 368.936 282.367 361.562 284.217 354.64C286.067 347.717 290.591 341.813 296.794 338.226C302.997 334.638 310.37 333.662 317.293 335.51C324.216 337.358 330.121 341.881 333.71 348.083" stroke="#911F8C" stroke-opacity="0.75" stroke-width="4.75" stroke-miterlimit="10"/>
<path d="M316.173 358.239C317.069 359.791 317.312 361.634 316.848 363.365C316.385 365.095 315.253 366.57 313.702 367.466C312.151 368.363 310.307 368.606 308.577 368.143C306.846 367.68 305.371 366.548 304.474 364.998C303.578 363.447 303.334 361.603 303.796 359.873C304.259 358.142 305.39 356.666 306.941 355.769C308.491 354.872 310.335 354.628 312.065 355.09C313.796 355.552 315.273 356.683 316.17 358.233" stroke="#911F8C" stroke-opacity="0.75" stroke-width="4.75" stroke-miterlimit="10"/>
<path d="M384.074 323.98C379.855 319.619 376.838 314.239 375.316 308.366C373.795 302.492 373.82 296.325 375.391 290.464C376.961 284.603 380.023 279.249 384.277 274.923C388.532 270.597 393.835 267.447 399.669 265.78" stroke="#911F8C" stroke-opacity="0.75" stroke-width="4.75" stroke-miterlimit="10"/>
<path d="M388.053 314.073C388.35 314.588 388.43 315.2 388.277 315.774C388.123 316.348 387.747 316.837 387.233 317.135C386.718 317.432 386.106 317.513 385.532 317.359C384.958 317.205 384.468 316.83 384.171 316.316C383.874 315.801 383.793 315.189 383.946 314.615C384.1 314.041 384.475 313.551 384.989 313.254C385.504 312.956 386.116 312.875 386.69 313.028C387.264 313.182 387.754 313.557 388.052 314.071" fill="#911F8C" fill-opacity="0.75"/>
<path d="M384.229 291.191C384.527 291.706 384.607 292.318 384.453 292.892C384.3 293.466 383.924 293.956 383.41 294.253C382.895 294.55 382.283 294.631 381.709 294.477C381.135 294.324 380.645 293.948 380.348 293.434C380.05 292.919 379.969 292.307 380.123 291.733C380.276 291.159 380.652 290.669 381.166 290.372C381.681 290.074 382.292 289.993 382.867 290.147C383.441 290.3 383.931 290.675 384.228 291.189" fill="#911F8C" fill-opacity="0.75"/>
<path d="M398.981 273.287C399.279 273.801 399.359 274.413 399.205 274.987C399.052 275.561 398.676 276.051 398.161 276.348C397.647 276.645 397.035 276.726 396.461 276.573C395.887 276.419 395.397 276.044 395.1 275.529C394.802 275.014 394.721 274.403 394.875 273.829C395.028 273.254 395.404 272.765 395.918 272.467C396.433 272.17 397.044 272.088 397.618 272.242C398.193 272.395 398.683 272.77 398.98 273.285" fill="#911F8C" fill-opacity="0.75"/>
<path d="M392.242 209.374C386.176 209.273 380.239 207.603 375.009 204.525C369.78 201.448 365.437 197.069 362.403 191.814C359.369 186.56 357.748 180.609 357.698 174.541C357.648 168.474 359.17 162.497 362.116 157.193" stroke="#911F8C" stroke-opacity="0.75" stroke-width="4.75" stroke-miterlimit="10"/>
<path d="M347.054 134.34C347.95 135.892 348.193 137.735 347.729 139.466C347.266 141.196 346.134 142.672 344.583 143.568C343.032 144.464 341.188 144.707 339.458 144.244C337.727 143.781 336.251 142.65 335.355 141.099C334.459 139.548 334.215 137.704 334.677 135.974C335.14 134.243 336.271 132.767 337.822 131.87C339.372 130.973 341.216 130.729 342.946 131.191C344.677 131.653 346.153 132.784 347.051 134.335" stroke="#911F8C" stroke-opacity="0.75" stroke-width="4.75" stroke-miterlimit="10"/>
<path d="M316.979 122.559C312.618 126.777 307.239 129.795 301.365 131.316C295.492 132.838 289.324 132.813 283.463 131.242C277.602 129.672 272.248 126.61 267.922 122.355C263.597 118.101 260.447 112.798 258.779 106.964" stroke="#911F8C" stroke-opacity="0.75" stroke-width="4.75" stroke-miterlimit="10"/>
<path d="M202.373 114.39C202.272 120.457 200.602 126.394 197.525 131.623C194.448 136.853 190.068 141.196 184.814 144.23C179.559 147.263 173.608 148.884 167.541 148.935C161.474 148.985 155.497 147.463 150.192 144.517" stroke="#911F8C" stroke-opacity="0.75" stroke-width="4.75" stroke-miterlimit="10"/>
<path d="M136.569 162.051C137.464 163.603 137.707 165.446 137.244 167.177C136.78 168.907 135.649 170.382 134.097 171.279C132.546 172.175 130.703 172.418 128.972 171.955C127.242 171.492 125.766 170.361 124.87 168.81C123.973 167.259 123.729 165.415 124.192 163.685C124.655 161.954 125.786 160.478 127.336 159.581C128.887 158.684 130.73 158.44 132.461 158.902C134.192 159.364 135.668 160.495 136.565 162.045" stroke="#911F8C" stroke-opacity="0.75" stroke-width="4.75" stroke-miterlimit="10"/>
<path d="M156.327 211.985C159.91 218.19 160.881 225.565 159.028 232.486C157.174 239.408 152.647 245.309 146.443 248.894C140.238 252.478 132.864 253.451 125.942 251.599C119.02 249.747 113.117 245.222 109.531 239.018C105.945 232.815 104.97 225.441 106.821 218.518C108.671 211.596 113.195 205.692 119.398 202.104C125.6 198.517 132.974 197.54 139.897 199.389C146.82 201.237 152.725 205.76 156.314 211.962" stroke="#911F8C" stroke-opacity="0.75" stroke-width="4.75" stroke-miterlimit="10"/>
<path d="M107.39 304.259C113.456 304.36 119.394 306.03 124.623 309.107C129.852 312.184 134.195 316.564 137.229 321.818C140.263 327.073 141.884 333.024 141.934 339.091C141.984 345.158 140.462 351.135 137.516 356.44" stroke="#911F8C" stroke-opacity="0.75" stroke-width="4.75" stroke-miterlimit="10"/>
<path d="M164.28 372.537C165.175 374.088 165.418 375.932 164.955 377.662C164.491 379.392 163.36 380.868 161.808 381.764C160.257 382.66 158.414 382.903 156.683 382.44C154.953 381.977 153.477 380.846 152.581 379.295C151.684 377.744 151.44 375.901 151.903 374.17C152.365 372.44 153.496 370.964 155.047 370.067C156.598 369.17 158.441 368.926 160.172 369.388C161.903 369.85 163.379 370.98 164.276 372.531" stroke="#911F8C" stroke-opacity="0.75" stroke-width="4.75" stroke-miterlimit="10"/>
<path d="M214.525 406.983C215.42 408.534 215.663 410.377 215.2 412.108C214.736 413.838 213.605 415.314 212.053 416.21C210.502 417.106 208.659 417.349 206.928 416.886C205.198 416.423 203.722 415.292 202.826 413.741C201.929 412.19 201.685 410.346 202.148 408.616C202.611 406.885 203.742 405.409 205.292 404.512C206.843 403.616 208.686 403.371 210.417 403.834C212.148 404.296 213.624 405.426 214.521 406.977" stroke="#911F8C" stroke-opacity="0.75" stroke-width="4.75" stroke-miterlimit="10"/>
<path d="M317.042 335.444L341.049 144.472" stroke="#911F8C" stroke-opacity="0.75" stroke-width="4.75" stroke-miterlimit="10"/>
<path d="M308.428 334.662L294.804 132.367" stroke="#911F8C" stroke-opacity="0.75" stroke-width="4.75" stroke-miterlimit="10"/>
<path d="M360.421 187.816L161.938 370.142" stroke="#911F8C" stroke-opacity="0.75" stroke-width="4.75" stroke-miterlimit="10"/>
<path d="M368.295 199.395L140.849 330.711" stroke="#911F8C" stroke-opacity="0.75" stroke-width="4.75" stroke-miterlimit="10"/>
<path d="M362.049 191.186L159.773 228.562" stroke="#911F8C" stroke-opacity="0.75" stroke-width="4.75" stroke-miterlimit="10"/>
<path d="M280.539 130.32L135.582 319.232" stroke="#911F8C" stroke-opacity="0.75" stroke-width="4.75" stroke-miterlimit="10"/>
<path d="M272.201 125.941L129.194 312.311" stroke="#911F8C" stroke-opacity="0.75" stroke-width="4.75" stroke-miterlimit="10"/>
</svg>
