<svg width="285" height="285" viewBox="0 0 285 285" fill="none" xmlns="http://www.w3.org/2000/svg">
<path d="M281.928 142.625C281.928 179.656 267.22 215.171 241.038 241.359C214.857 267.547 179.346 282.264 142.315 282.273C105.284 282.282 69.7662 267.583 43.5717 241.408C17.3771 215.233 2.65135 179.726 2.63283 142.695C2.61431 105.665 17.3046 70.1426 43.4729 43.9415C69.6413 17.7404 105.145 3.00578 142.176 2.97801C179.206 2.95023 214.732 17.6316 240.94 43.7934C267.147 69.9552 281.891 105.455 281.928 142.486" stroke="#1072E5" stroke-opacity="0.55" stroke-width="4.75" stroke-miterlimit="10"/>
<path d="M203.816 235.868C188.573 245.928 171.095 252.098 152.913 253.836C134.732 255.575 116.402 252.829 99.5276 245.839C82.6536 238.85 67.7505 227.83 56.1235 213.745C44.4966 199.659 36.5003 182.938 32.835 165.045" stroke="#1072E5" stroke-opacity="0.55" stroke-width="4.75" stroke-miterlimit="10"/>
<path d="M32.835 120.206C37.2256 98.772 47.8131 79.0994 63.2836 63.6289C78.7542 48.1583 98.4268 37.5708 119.86 33.1802" stroke="#1072E5" stroke-opacity="0.55" stroke-width="4.75" stroke-miterlimit="10"/>
<path d="M164.7 33.1802C178.653 36.0383 191.93 41.5379 203.817 49.3827" stroke="#1072E5" stroke-opacity="0.55" stroke-width="4.75" stroke-miterlimit="10"/>
<path d="M235.522 81.0892C243.367 92.976 248.867 106.253 251.725 120.206" stroke="#1072E5" stroke-opacity="0.55" stroke-width="4.75" stroke-miterlimit="10"/>
<path d="M251.725 165.045C248.867 178.998 243.367 192.275 235.522 204.162" stroke="#1072E5" stroke-opacity="0.55" stroke-width="4.75" stroke-miterlimit="10"/>
<path d="M162.389 232.683C162.389 238.015 160.271 243.129 156.501 246.9C152.731 250.671 147.618 252.79 142.285 252.792C136.953 252.793 131.838 250.676 128.066 246.907C124.294 243.138 122.174 238.025 122.171 232.693C122.168 227.36 124.284 222.245 128.052 218.472C131.82 214.699 136.933 212.577 142.265 212.573C147.597 212.569 152.713 214.683 156.487 218.451C160.261 222.218 162.384 227.33 162.389 232.662" stroke="#1072E5" stroke-opacity="0.55" stroke-width="4.75" stroke-miterlimit="10"/>
<path d="M147.308 232.683C147.308 234.016 146.778 235.294 145.836 236.237C144.893 237.18 143.615 237.71 142.282 237.71C140.948 237.71 139.67 237.181 138.727 236.239C137.784 235.296 137.254 234.018 137.253 232.685C137.252 231.352 137.781 230.073 138.723 229.13C139.665 228.187 140.943 227.656 142.276 227.655C143.61 227.654 144.889 228.183 145.832 229.125C146.775 230.066 147.306 231.344 147.308 232.678" stroke="#1072E5" stroke-opacity="0.55" stroke-width="4.75" stroke-miterlimit="10"/>
<path d="M203.816 235.868C202.72 231.488 202.777 226.898 203.982 222.547C205.187 218.195 207.498 214.229 210.691 211.036C213.884 207.844 217.849 205.532 222.201 204.327C226.553 203.123 231.142 203.066 235.523 204.162" stroke="#1072E5" stroke-opacity="0.55" stroke-width="4.75" stroke-miterlimit="10"/>
<path d="M210.067 230.964C210.067 231.406 209.892 231.83 209.579 232.143C209.266 232.456 208.842 232.632 208.4 232.632C207.958 232.632 207.533 232.456 207.22 232.144C206.908 231.831 206.732 231.407 206.731 230.965C206.731 230.522 206.907 230.098 207.219 229.785C207.532 229.472 207.956 229.296 208.398 229.296C208.841 229.296 209.265 229.471 209.578 229.783C209.891 230.096 210.067 230.52 210.067 230.962" fill="#1072E5" fill-opacity="0.55"/>
<path d="M216.117 214.794C216.117 215.237 215.942 215.661 215.629 215.974C215.316 216.286 214.892 216.462 214.45 216.462C214.007 216.462 213.583 216.287 213.27 215.974C212.957 215.662 212.781 215.237 212.781 214.795C212.781 214.353 212.956 213.929 213.269 213.616C213.582 213.303 214.006 213.127 214.448 213.126C214.89 213.126 215.315 213.301 215.628 213.614C215.941 213.926 216.117 214.35 216.117 214.793" fill="#1072E5" fill-opacity="0.55"/>
<path d="M232.286 208.744C232.286 209.186 232.111 209.611 231.798 209.923C231.485 210.236 231.061 210.412 230.619 210.412C230.176 210.412 229.752 210.237 229.439 209.924C229.126 209.611 228.95 209.187 228.95 208.745C228.95 208.303 229.125 207.878 229.438 207.565C229.751 207.252 230.175 207.076 230.617 207.076C231.059 207.076 231.484 207.251 231.797 207.564C232.11 207.876 232.286 208.3 232.286 208.742" fill="#1072E5" fill-opacity="0.55"/>
<path d="M251.726 165.045C247.853 162.723 244.648 159.437 242.423 155.508C240.198 151.579 239.028 147.141 239.028 142.625C239.028 138.11 240.198 133.672 242.423 129.743C244.648 125.814 247.853 122.528 251.726 120.206" stroke="#1072E5" stroke-opacity="0.55" stroke-width="4.75" stroke-miterlimit="10"/>
<path d="M250.521 99.8729C250.521 101.206 249.992 102.485 249.049 103.427C248.107 104.37 246.828 104.9 245.495 104.9C244.162 104.901 242.884 104.371 241.941 103.429C240.998 102.487 240.467 101.209 240.467 99.8754C240.466 98.5423 240.995 97.2635 241.937 96.3203C242.879 95.377 244.157 94.8466 245.49 94.8456C246.823 94.8446 248.102 95.3731 249.046 96.3149C249.989 97.2568 250.52 98.5348 250.521 99.8679" stroke="#1072E5" stroke-opacity="0.55" stroke-width="4.75" stroke-miterlimit="10"/>
<path d="M235.523 81.0892C231.142 82.1854 226.553 82.1283 222.201 80.9235C217.849 79.7187 213.884 77.4073 210.691 74.2144C207.498 71.0215 205.187 67.0561 203.982 62.7044C202.777 58.3527 202.72 53.7631 203.816 49.3828" stroke="#1072E5" stroke-opacity="0.55" stroke-width="4.75" stroke-miterlimit="10"/>
<path d="M164.7 33.1802C162.378 37.0527 159.092 40.2576 155.163 42.4828C151.234 44.7081 146.796 45.8776 142.28 45.8776C137.765 45.8776 133.326 44.7081 129.397 42.4828C125.468 40.2576 122.183 37.0527 119.86 33.1802" stroke="#1072E5" stroke-opacity="0.55" stroke-width="4.75" stroke-miterlimit="10"/>
<path d="M104.555 39.4115C104.555 40.7446 104.025 42.0232 103.083 42.9659C102.14 43.9087 100.862 44.4385 99.5286 44.4388C98.1955 44.4392 96.9168 43.91 95.9738 42.9677C95.0308 42.0254 94.5007 40.7471 94.5 39.414C94.4993 38.0809 95.0282 36.8021 95.9702 35.8589C96.9123 34.9157 98.1904 34.3852 99.5235 34.3842C100.857 34.3832 102.136 34.9117 103.079 35.8536C104.023 36.7954 104.553 38.0734 104.555 39.4065" stroke="#1072E5" stroke-opacity="0.55" stroke-width="4.75" stroke-miterlimit="10"/>
<path d="M98.7097 78.9454C98.7097 84.2778 96.5917 89.3919 92.8216 93.163C89.0515 96.9341 83.9379 99.0533 78.6055 99.0546C73.273 99.056 68.1584 96.9393 64.3864 93.1701C60.6144 89.4009 58.4939 84.2879 58.4912 78.9555C58.4885 73.623 60.6039 68.5079 64.3722 64.7349C68.1404 60.962 73.2529 58.8402 78.5854 58.8362C83.9178 58.8322 89.0335 60.9463 92.8074 64.7136C96.5813 68.4809 98.7043 73.5929 98.7097 78.9253" stroke="#1072E5" stroke-opacity="0.55" stroke-width="4.75" stroke-miterlimit="10"/>
<path d="M32.835 120.206C36.7075 122.528 39.9124 125.814 42.1376 129.743C44.3628 133.672 45.5324 138.11 45.5324 142.625C45.5324 147.141 44.3628 151.579 42.1376 155.508C39.9124 159.437 36.7075 162.723 32.835 165.045" stroke="#1072E5" stroke-opacity="0.55" stroke-width="4.75" stroke-miterlimit="10"/>
<path d="M44.0937 185.378C44.0937 186.711 43.5642 187.99 42.6217 188.933C41.6791 189.875 40.4007 190.405 39.0676 190.405C37.7345 190.406 36.4559 189.877 35.5129 188.934C34.5699 187.992 34.0397 186.714 34.0391 185.381C34.0384 184.048 34.5672 182.769 35.5093 181.826C36.4514 180.882 37.7295 180.352 39.0626 180.351C40.3957 180.35 41.6746 180.878 42.6181 181.82C43.5616 182.762 44.0923 184.04 44.0937 185.373" stroke="#1072E5" stroke-opacity="0.55" stroke-width="4.75" stroke-miterlimit="10"/>
<path d="M63.6591 226.274C63.6591 227.607 63.1296 228.886 62.1871 229.828C61.2446 230.771 59.9662 231.301 58.6331 231.301C57.2999 231.302 56.0213 230.772 55.0783 229.83C54.1353 228.888 53.6052 227.61 53.6045 226.277C53.6038 224.943 54.1327 223.665 55.0747 222.721C56.0168 221.778 57.2949 221.248 58.628 221.247C59.9611 221.246 61.2401 221.774 62.1835 222.716C63.127 223.658 63.6578 224.936 63.6591 226.269" stroke="#1072E5" stroke-opacity="0.55" stroke-width="4.75" stroke-miterlimit="10"/>
<path d="M156.35 218.315L242.882 104.168" stroke="#1072E5" stroke-opacity="0.55" stroke-width="4.75" stroke-miterlimit="10"/>
<path d="M151.09 214.605L217.583 79.1593" stroke="#1072E5" stroke-opacity="0.55" stroke-width="4.75" stroke-miterlimit="10"/>
<path d="M239.239 139.311L43.4766 182.964" stroke="#1072E5" stroke-opacity="0.55" stroke-width="4.75" stroke-miterlimit="10"/>
<path d="M240.004 149.704H44.5557" stroke="#1072E5" stroke-opacity="0.55" stroke-width="4.75" stroke-miterlimit="10"/>
<path d="M239.033 142.089L94.7617 90.9114" stroke="#1072E5" stroke-opacity="0.55" stroke-width="4.75" stroke-miterlimit="10"/>
<path d="M209.15 72.532L45.4336 140.346" stroke="#1072E5" stroke-opacity="0.55" stroke-width="4.75" stroke-miterlimit="10"/>
<path d="M205.406 66.6073L43.8916 133.509" stroke="#1072E5" stroke-opacity="0.55" stroke-width="4.75" stroke-miterlimit="10"/>
</svg>
