<svg width="810" height="810" viewBox="0 0 810 810" fill="none" xmlns="http://www.w3.org/2000/svg">
<path d="M634.305 229.904C680.825 290.62 701.324 367.328 691.294 443.157C681.265 518.986 641.528 587.726 580.823 634.261C520.118 680.796 443.415 701.314 367.584 691.304C291.753 681.293 223.002 641.574 176.452 580.88C129.902 520.187 109.365 443.489 119.356 367.655C129.348 291.822 169.05 223.061 229.732 176.496C290.414 129.931 367.106 109.374 442.943 119.347C518.779 129.319 587.549 169.005 634.13 229.675" stroke="#FFC67E" stroke-opacity="0.55" stroke-width="4.75" stroke-miterlimit="10"/>
<path d="M506.064 612.949C479.597 625.79 450.918 633.452 421.573 635.523" stroke="#FFC67E" stroke-opacity="0.55" stroke-width="4.75" stroke-miterlimit="10"/>
<path d="M329.756 623.367C287.057 608.565 249.644 581.552 222.159 545.679C194.674 509.807 178.327 466.653 175.147 421.573" stroke="#FFC67E" stroke-opacity="0.55" stroke-width="4.75" stroke-miterlimit="10"/>
<path d="M187.303 329.756C202.104 287.056 229.118 249.643 264.99 222.158C300.863 194.674 344.017 178.327 389.097 175.147" stroke="#FFC67E" stroke-opacity="0.55" stroke-width="4.75" stroke-miterlimit="10"/>
<path d="M480.914 187.303C508.709 196.938 534.406 211.799 556.62 231.085" stroke="#FFC67E" stroke-opacity="0.55" stroke-width="4.75" stroke-miterlimit="10"/>
<path d="M612.949 304.605C625.79 331.073 633.452 359.751 635.522 389.096" stroke="#FFC67E" stroke-opacity="0.55" stroke-width="4.75" stroke-miterlimit="10"/>
<path d="M623.367 480.914C613.732 508.709 598.871 534.406 579.585 556.62" stroke="#FFC67E" stroke-opacity="0.55" stroke-width="4.75" stroke-miterlimit="10"/>
<path d="M506.064 612.949C505.007 603.682 506.368 594.3 510.015 585.715C513.662 577.131 519.47 569.638 526.874 563.965C534.277 558.293 543.024 554.635 552.261 553.347C561.499 552.06 570.912 553.188 579.585 556.62" stroke="#FFC67E" stroke-opacity="0.55" stroke-width="4.75" stroke-miterlimit="10"/>
<path d="M519.512 602.054C520.067 602.779 520.312 603.695 520.192 604.601C520.072 605.507 519.598 606.328 518.873 606.883C518.148 607.439 517.231 607.684 516.326 607.565C515.42 607.445 514.599 606.971 514.043 606.246C513.487 605.521 513.241 604.605 513.361 603.699C513.48 602.793 513.954 601.972 514.679 601.416C515.404 600.86 516.32 600.614 517.226 600.733C518.132 600.852 518.953 601.326 519.509 602.051" fill="#FFC67E" fill-opacity="0.55"/>
<path d="M536.284 570.583C536.84 571.309 537.085 572.225 536.965 573.131C536.845 574.036 536.37 574.857 535.645 575.413C534.92 575.969 534.004 576.214 533.098 576.095C532.192 575.975 531.371 575.501 530.815 574.776C530.259 574.051 530.014 573.135 530.133 572.229C530.253 571.323 530.727 570.502 531.452 569.946C532.176 569.389 533.092 569.144 533.998 569.263C534.904 569.382 535.726 569.856 536.282 570.581" fill="#FFC67E" fill-opacity="0.55"/>
<path d="M571.035 562.578C571.591 563.303 571.836 564.219 571.716 565.125C571.596 566.031 571.121 566.852 570.396 567.408C569.671 567.964 568.755 568.209 567.849 568.089C566.943 567.969 566.122 567.495 565.566 566.77C565.01 566.045 564.765 565.129 564.884 564.223C565.004 563.317 565.478 562.496 566.203 561.94C566.927 561.384 567.843 561.138 568.749 561.257C569.655 561.376 570.477 561.85 571.033 562.575" fill="#FFC67E" fill-opacity="0.55"/>
<path d="M613.338 514.544C615.012 516.73 615.75 519.492 615.389 522.221C615.028 524.951 613.598 527.426 611.412 529.101C609.227 530.776 606.465 531.515 603.736 531.155C601.006 530.794 598.531 529.364 596.855 527.179C595.179 524.994 594.44 522.233 594.799 519.503C595.159 516.773 596.588 514.298 598.773 512.622C600.957 510.945 603.718 510.205 606.448 510.564C609.179 510.923 611.654 512.352 613.331 514.536" stroke="#FFC67E" stroke-opacity="0.55" stroke-width="4.75" stroke-miterlimit="10"/>
<path d="M623.367 480.914C616.067 475.109 610.395 467.512 606.904 458.863C603.412 450.214 602.221 440.809 603.445 431.563C604.669 422.317 608.267 413.545 613.889 406.103C619.51 398.661 626.964 392.801 635.523 389.096" stroke="#FFC67E" stroke-opacity="0.55" stroke-width="4.75" stroke-miterlimit="10"/>
<path d="M636.518 339.456C638.193 341.642 638.931 344.403 638.57 347.133C638.209 349.863 636.778 352.338 634.593 354.013C632.407 355.688 629.646 356.427 626.916 356.066C624.186 355.706 621.711 354.276 620.035 352.091C618.36 349.906 617.62 347.145 617.98 344.415C618.34 341.685 619.769 339.21 621.954 337.533C624.138 335.857 626.899 335.117 629.629 335.476C632.359 335.835 634.835 337.264 636.512 339.448" stroke="#FFC67E" stroke-opacity="0.55" stroke-width="4.75" stroke-miterlimit="10"/>
<path d="M612.949 304.605C603.683 305.662 594.3 304.301 585.716 300.655C577.131 297.008 569.638 291.2 563.965 283.796C558.293 276.393 554.635 267.646 553.348 258.408C552.06 249.171 553.188 239.757 556.62 231.085" stroke="#FFC67E" stroke-opacity="0.55" stroke-width="4.75" stroke-miterlimit="10"/>
<path d="M480.914 187.303C475.108 194.603 467.512 200.275 458.863 203.766C450.214 207.258 440.809 208.449 431.562 207.225C422.316 206.001 413.545 202.403 406.103 196.781C398.66 191.159 392.801 183.706 389.096 175.147" stroke="#FFC67E" stroke-opacity="0.55" stroke-width="4.75" stroke-miterlimit="10"/>
<path d="M354.014 176.079C355.689 178.265 356.427 181.026 356.066 183.756C355.705 186.486 354.274 188.96 352.089 190.636C349.904 192.311 347.142 193.05 344.412 192.689C341.682 192.329 339.207 190.899 337.532 188.714C335.856 186.529 335.116 183.768 335.476 181.038C335.836 178.308 337.265 175.832 339.45 174.156C341.634 172.48 344.395 171.74 347.125 172.099C349.855 172.458 352.331 173.886 354.008 176.071" stroke="#FFC67E" stroke-opacity="0.55" stroke-width="4.75" stroke-miterlimit="10"/>
<path d="M325.173 232.412C331.872 241.155 334.824 252.201 333.38 263.121C331.935 274.04 326.213 283.939 317.472 290.64C308.73 297.341 297.685 300.295 286.765 298.854C275.846 297.412 265.946 291.693 259.242 282.953C252.539 274.213 249.582 263.169 251.021 252.248C252.459 241.328 258.177 231.427 266.915 224.722C275.653 218.016 286.697 215.056 297.617 216.492C308.537 217.928 318.44 223.643 325.148 232.379" stroke="#FFC67E" stroke-opacity="0.55" stroke-width="4.75" stroke-miterlimit="10"/>
<path d="M187.303 329.756C194.603 335.561 200.275 343.157 203.767 351.806C207.258 360.455 208.45 369.86 207.226 379.107C206.002 388.353 202.403 397.124 196.782 404.566C191.16 412.009 183.707 417.868 175.147 421.573" stroke="#FFC67E" stroke-opacity="0.55" stroke-width="4.75" stroke-miterlimit="10"/>
<path d="M190.637 458.582C192.312 460.768 193.05 463.53 192.689 466.259C192.328 468.989 190.897 471.464 188.712 473.139C186.527 474.814 183.765 475.553 181.035 475.193C178.305 474.832 175.83 473.402 174.155 471.217C172.479 469.032 171.739 466.271 172.099 463.541C172.459 460.811 173.888 458.336 176.073 456.66C178.257 454.983 181.018 454.243 183.748 454.602C186.478 454.961 188.954 456.39 190.631 458.574" stroke="#FFC67E" stroke-opacity="0.55" stroke-width="4.75" stroke-miterlimit="10"/>
<path d="M219.615 547.629C221.29 549.814 222.028 552.576 221.666 555.306C221.305 558.036 219.875 560.51 217.689 562.186C215.504 563.861 212.743 564.599 210.013 564.239C207.283 563.879 204.808 562.449 203.132 560.264C201.456 558.079 200.717 555.318 201.077 552.588C201.436 549.858 202.866 547.382 205.05 545.706C207.235 544.03 209.996 543.29 212.726 543.649C215.456 544.008 217.932 545.436 219.609 547.62" stroke="#FFC67E" stroke-opacity="0.55" stroke-width="4.75" stroke-miterlimit="10"/>
<path d="M329.756 623.367C335.561 616.067 343.158 610.395 351.807 606.903C360.455 603.412 369.861 602.22 379.107 603.444C388.353 604.668 397.125 608.266 404.567 613.888C412.009 619.51 417.868 626.963 421.574 635.523" stroke="#FFC67E" stroke-opacity="0.55" stroke-width="4.75" stroke-miterlimit="10"/>
<path d="M603.025 440.911L205.198 388.242" stroke="#FFC67E" stroke-opacity="0.55" stroke-width="4.75" stroke-miterlimit="10"/>
<path d="M603.545 446.458L203.252 393.463" stroke="#FFC67E" stroke-opacity="0.55" stroke-width="4.75" stroke-miterlimit="10"/>
<path d="M610.78 466.611L411.038 619.648" stroke="#FFC67E" stroke-opacity="0.55" stroke-width="4.75" stroke-miterlimit="10"/>
<path d="M618.322 342.808L332.706 266.874" stroke="#FFC67E" stroke-opacity="0.55" stroke-width="4.75" stroke-miterlimit="10"/>
<path d="M562.111 281.223L192.188 461.447" stroke="#FFC67E" stroke-opacity="0.55" stroke-width="4.75" stroke-miterlimit="10"/>
<path d="M552.962 247.183L198.501 341.885" stroke="#FFC67E" stroke-opacity="0.55" stroke-width="4.75" stroke-miterlimit="10"/>
<path d="M582.188 299.003L401.376 611.654" stroke="#FFC67E" stroke-opacity="0.55" stroke-width="4.75" stroke-miterlimit="10"/>
<path d="M367.309 603.183L325.703 128.094" stroke="#FFC67E" stroke-opacity="0.55" stroke-width="4.75" stroke-miterlimit="10"/>
</svg>
