<svg width="333" height="336" viewBox="0 0 333 336" fill="none" xmlns="http://www.w3.org/2000/svg">
<path d="M330.043 167.905C330.043 211.59 312.692 253.487 281.806 284.38C250.92 315.274 209.028 332.636 165.343 332.647C121.658 332.658 79.7574 315.317 48.8559 284.439C17.9543 253.56 0.58241 211.673 0.560567 167.988C0.538725 124.303 17.8688 82.3976 48.7394 51.4883C79.6101 20.579 121.493 3.19663 165.178 3.16386C208.863 3.1311 250.773 20.4507 281.69 51.3136C312.607 82.1765 330 124.056 330.043 167.74" stroke="white" stroke-opacity="0.75" stroke-width="4.75" stroke-miterlimit="10"/>
<path d="M109.233 287.177C84.8824 275.73 64.6192 257.104 51.1658 233.802C37.7125 210.5 31.7136 183.639 33.9753 156.827" stroke="white" stroke-opacity="0.75" stroke-width="4.75" stroke-miterlimit="10"/>
<path d="M90.0449 59.7121C105.02 49.296 121.993 42.1018 139.892 38.5849C157.791 35.068 176.225 35.3049 194.028 39.2807C211.83 43.2564 228.613 50.8845 243.315 61.682C258.017 72.4796 270.318 86.2115 279.438 102.009C288.559 117.806 294.301 135.324 296.301 153.455C298.301 171.587 296.515 189.935 291.057 207.341C285.599 224.746 276.587 240.829 264.592 254.571C252.597 268.314 237.88 279.416 221.372 287.177" stroke="white" stroke-opacity="0.75" stroke-width="4.75" stroke-miterlimit="10"/>
<path d="M109.232 287.177C114.153 276.441 122.053 267.344 131.992 260.966C141.931 254.589 153.492 251.198 165.302 251.198C177.111 251.198 188.672 254.589 198.612 260.966C208.551 267.344 216.45 276.441 221.371 287.177" stroke="white" stroke-opacity="0.75" stroke-width="4.75" stroke-miterlimit="10"/>
<path d="M291.3 233.802C291.3 236.947 290.051 239.964 287.827 242.188C285.603 244.412 282.587 245.662 279.441 245.663C276.296 245.664 273.279 244.415 271.054 242.192C268.83 239.969 267.579 236.953 267.577 233.808C267.576 230.662 268.823 227.645 271.046 225.42C273.269 223.194 276.284 221.943 279.43 221.94C282.575 221.938 285.592 223.185 287.818 225.407C290.044 227.629 291.297 230.645 291.3 233.79" stroke="white" stroke-opacity="0.75" stroke-width="4.75" stroke-miterlimit="10"/>
<path d="M284.209 126.647C284.209 139.228 279.212 151.294 270.317 160.192C261.422 169.089 249.357 174.089 236.776 174.092C224.194 174.095 212.127 169.101 203.227 160.208C194.328 151.315 189.325 139.252 189.318 126.67C189.312 114.089 194.303 102.02 203.194 93.1186C212.085 84.2167 224.147 79.2106 236.728 79.2012C249.31 79.1917 261.379 84.1798 270.284 93.0683C279.188 101.957 284.197 114.018 284.209 126.599" stroke="white" stroke-opacity="0.75" stroke-width="4.75" stroke-miterlimit="10"/>
<path d="M90.045 59.712C96.8816 69.3413 100.81 80.7309 101.364 92.5274C101.917 104.324 99.0729 116.031 93.1682 126.259C87.2635 136.486 78.5468 144.803 68.0539 150.222C57.5611 155.641 45.7331 157.933 33.9756 156.827" stroke="white" stroke-opacity="0.75" stroke-width="4.75" stroke-miterlimit="10"/>
<path d="M63.0275 233.802C63.0275 236.947 61.7782 239.964 59.5544 242.188C57.3306 244.412 54.3144 245.662 51.169 245.663C48.0237 245.664 45.0069 244.415 42.782 242.192C40.557 239.969 39.3063 236.953 39.3047 233.808C39.3031 230.662 40.5509 227.645 42.7736 225.42C44.9963 223.194 48.0119 221.943 51.1572 221.94C54.3025 221.938 57.32 223.185 59.546 225.407C61.772 227.629 63.0243 230.645 63.0275 233.79" stroke="white" stroke-opacity="0.75" stroke-width="4.75" stroke-miterlimit="10"/>
<path d="M179.766 252.918L214.18 168.373" stroke="white" stroke-opacity="0.75" stroke-width="4.75" stroke-miterlimit="10"/>
<path d="M84.3545 138.021L258.129 304.004" stroke="white" stroke-opacity="0.75" stroke-width="4.75" stroke-miterlimit="10"/>
<path d="M88.9404 132.632L285.074 281.017" stroke="white" stroke-opacity="0.75" stroke-width="4.75" stroke-miterlimit="10"/>
<path d="M101.213 90.2365L300.276 73.451" stroke="white" stroke-opacity="0.75" stroke-width="4.75" stroke-miterlimit="10"/>
</svg>
