<svg width="980" height="658" viewBox="0 0 980 658" fill="none" xmlns="http://www.w3.org/2000/svg">
<g clip-path="url(#clip0_399_502)">
<g clip-path="url(#clip1_399_502)">
<path d="M831.804 248.563C843.379 300.338 833.916 354.591 805.496 399.39C777.076 444.189 732.026 475.866 680.253 487.454C628.481 499.042 574.226 489.593 529.42 461.184C484.613 432.775 452.925 387.732 441.324 335.963C429.723 284.193 439.159 229.936 467.557 185.123C495.955 140.309 540.989 108.61 592.756 96.9961C644.522 85.3821 698.782 94.8045 743.603 123.191C788.423 151.578 820.134 196.604 831.76 248.368" stroke="#FFC67E" stroke-opacity="0.55" stroke-width="4.75" stroke-miterlimit="10"/>
<path d="M639.417 452.245C619.016 452.61 598.733 449.071 579.661 441.818" stroke="#FFC67E" stroke-opacity="0.55" stroke-width="4.75" stroke-miterlimit="10"/>
<path d="M525.419 407.398C502.862 385.634 487.192 357.725 480.353 327.135C473.514 296.545 475.808 264.62 486.949 235.322" stroke="#FFC67E" stroke-opacity="0.55" stroke-width="4.75" stroke-miterlimit="10"/>
<path d="M521.369 181.08C543.134 158.523 571.042 142.852 601.632 136.013C632.223 129.175 664.147 131.468 693.446 142.61" stroke="#FFC67E" stroke-opacity="0.55" stroke-width="4.75" stroke-miterlimit="10"/>
<path d="M747.687 177.03C762.371 191.198 774.211 208.042 782.568 226.657" stroke="#FFC67E" stroke-opacity="0.55" stroke-width="4.75" stroke-miterlimit="10"/>
<path d="M796.584 289.35C796.95 309.752 793.41 330.034 786.158 349.106" stroke="#FFC67E" stroke-opacity="0.55" stroke-width="4.75" stroke-miterlimit="10"/>
<path d="M751.737 403.348C737.57 418.032 720.725 429.872 702.111 438.229" stroke="#FFC67E" stroke-opacity="0.55" stroke-width="4.75" stroke-miterlimit="10"/>
<path d="M639.417 452.245C641.454 446.105 645.046 440.597 649.844 436.257C654.642 431.918 660.482 428.895 666.795 427.484C673.108 426.072 679.68 426.32 685.869 428.203C692.058 430.086 697.653 433.541 702.111 438.229" stroke="#FFC67E" stroke-opacity="0.55" stroke-width="4.75" stroke-miterlimit="10"/>
<path d="M651.057 449.309C651.195 449.927 651.082 450.575 650.743 451.11C650.403 451.645 649.865 452.024 649.247 452.162C648.629 452.301 647.981 452.188 647.445 451.848C646.91 451.509 646.532 450.971 646.393 450.353C646.255 449.734 646.367 449.086 646.706 448.551C647.046 448.016 647.584 447.637 648.202 447.498C648.82 447.36 649.468 447.472 650.004 447.811C650.539 448.15 650.918 448.688 651.057 449.306" fill="#FFC67E" fill-opacity="0.55"/>
<path d="M670.788 434.393C670.927 435.011 670.813 435.659 670.474 436.194C670.135 436.729 669.596 437.108 668.978 437.246C668.36 437.385 667.712 437.272 667.176 436.932C666.641 436.593 666.263 436.055 666.124 435.437C665.986 434.818 666.098 434.17 666.438 433.635C666.777 433.1 667.315 432.721 667.933 432.582C668.551 432.444 669.199 432.556 669.735 432.895C670.27 433.234 670.649 433.772 670.788 434.391" fill="#FFC67E" fill-opacity="0.55"/>
<path d="M694.993 439.486C695.131 440.105 695.018 440.753 694.679 441.288C694.339 441.823 693.801 442.201 693.183 442.34C692.564 442.478 691.916 442.365 691.381 442.026C690.846 441.687 690.467 441.149 690.329 440.53C690.19 439.912 690.303 439.264 690.642 438.728C690.981 438.193 691.519 437.815 692.138 437.676C692.756 437.537 693.404 437.65 693.939 437.989C694.475 438.328 694.853 438.866 694.992 439.484" fill="#FFC67E" fill-opacity="0.55"/>
<path d="M735.621 421.59C736.037 423.453 735.697 425.407 734.673 427.019C733.65 428.632 732.029 429.772 730.165 430.19C728.301 430.607 726.348 430.267 724.735 429.244C723.122 428.221 721.981 426.6 721.563 424.736C721.146 422.872 721.485 420.919 722.508 419.306C723.53 417.692 725.151 416.551 727.015 416.133C728.878 415.715 730.832 416.054 732.445 417.076C734.059 418.098 735.2 419.719 735.619 421.583" stroke="#FFC67E" stroke-opacity="0.55" stroke-width="4.75" stroke-miterlimit="10"/>
<path d="M751.737 403.348C748.836 397.566 747.481 391.131 747.805 384.67C748.129 378.209 750.121 371.943 753.588 366.48C757.054 361.018 761.876 356.547 767.583 353.502C773.291 350.457 779.69 348.943 786.158 349.106" stroke="#FFC67E" stroke-opacity="0.55" stroke-width="4.75" stroke-miterlimit="10"/>
<path d="M801.257 318.155C801.673 320.019 801.333 321.972 800.31 323.585C799.287 325.198 797.665 326.338 795.801 326.755C793.937 327.173 791.984 326.832 790.371 325.81C788.758 324.787 787.617 323.165 787.199 321.302C786.782 319.438 787.121 317.485 788.144 315.871C789.166 314.258 790.787 313.117 792.651 312.699C794.515 312.281 796.468 312.62 798.081 313.642C799.695 314.664 800.837 316.285 801.255 318.148" stroke="#FFC67E" stroke-opacity="0.55" stroke-width="4.75" stroke-miterlimit="10"/>
<path d="M796.584 289.35C790.444 287.314 784.936 283.722 780.597 278.924C776.257 274.126 773.235 268.286 771.823 261.973C770.412 255.659 770.66 249.088 772.543 242.899C774.426 236.71 777.88 231.114 782.568 226.657" stroke="#FFC67E" stroke-opacity="0.55" stroke-width="4.75" stroke-miterlimit="10"/>
<path d="M747.687 177.03C741.906 179.932 735.471 181.287 729.01 180.963C722.549 180.638 716.282 178.646 710.82 175.18C705.357 171.714 700.886 166.892 697.841 161.184C694.797 155.476 693.282 149.077 693.446 142.61" stroke="#FFC67E" stroke-opacity="0.55" stroke-width="4.75" stroke-miterlimit="10"/>
<path d="M671.095 132.968C671.512 134.832 671.171 136.785 670.148 138.398C669.125 140.011 667.503 141.151 665.639 141.568C663.775 141.986 661.822 141.645 660.209 140.623C658.596 139.6 657.455 137.979 657.038 136.115C656.62 134.251 656.96 132.298 657.982 130.685C659.005 129.071 660.626 127.93 662.489 127.512C664.353 127.094 666.306 127.433 667.92 128.455C669.533 129.477 670.675 131.098 671.093 132.961" stroke="#FFC67E" stroke-opacity="0.55" stroke-width="4.75" stroke-miterlimit="10"/>
<path d="M636.519 160.013C638.186 167.469 636.823 175.281 632.731 181.732C628.638 188.183 622.151 192.745 614.696 194.414C607.241 196.082 599.428 194.721 592.976 190.631C586.524 186.54 581.961 180.054 580.29 172.599C578.62 165.144 579.978 157.331 584.068 150.878C588.157 144.425 594.642 139.86 602.096 138.188C609.551 136.515 617.364 137.872 623.818 141.96C630.272 146.047 634.839 152.531 636.513 159.985" stroke="#FFC67E" stroke-opacity="0.55" stroke-width="4.75" stroke-miterlimit="10"/>
<path d="M521.369 181.08C524.271 186.862 525.626 193.297 525.302 199.758C524.978 206.219 522.985 212.486 519.519 217.948C516.053 223.41 511.231 227.881 505.523 230.926C499.816 233.971 493.416 235.485 486.949 235.322" stroke="#FFC67E" stroke-opacity="0.55" stroke-width="4.75" stroke-miterlimit="10"/>
<path d="M485.908 263.13C486.325 264.994 485.984 266.947 484.961 268.56C483.938 270.173 482.316 271.313 480.452 271.73C478.589 272.147 476.635 271.807 475.022 270.784C473.409 269.762 472.269 268.14 471.851 266.276C471.433 264.413 471.773 262.459 472.795 260.846C473.818 259.233 475.439 258.092 477.302 257.674C479.166 257.256 481.119 257.595 482.733 258.617C484.346 259.639 485.488 261.26 485.907 263.123" stroke="#FFC67E" stroke-opacity="0.55" stroke-width="4.75" stroke-miterlimit="10"/>
<path d="M478.183 327.62C478.6 329.484 478.259 331.437 477.236 333.05C476.213 334.663 474.591 335.803 472.728 336.22C470.864 336.637 468.911 336.297 467.297 335.274C465.684 334.252 464.544 332.63 464.126 330.767C463.708 328.903 464.048 326.95 465.07 325.336C466.093 323.723 467.714 322.582 469.578 322.164C471.441 321.746 473.395 322.085 475.008 323.107C476.622 324.129 477.763 325.75 478.182 327.613" stroke="#FFC67E" stroke-opacity="0.55" stroke-width="4.75" stroke-miterlimit="10"/>
<path d="M525.419 407.398C531.201 404.496 537.636 403.141 544.097 403.466C550.558 403.79 556.825 405.782 562.287 409.248C567.749 412.714 572.221 417.536 575.265 423.244C578.31 428.952 579.825 435.351 579.661 441.818" stroke="#FFC67E" stroke-opacity="0.55" stroke-width="4.75" stroke-miterlimit="10"/>
<path d="M750.598 372.242L515.58 223.107" stroke="#FFC67E" stroke-opacity="0.55" stroke-width="4.75" stroke-miterlimit="10"/>
<path d="M749.308 375.884L512.833 225.825" stroke="#FFC67E" stroke-opacity="0.55" stroke-width="4.75" stroke-miterlimit="10"/>
<path d="M747.986 390.677L577.659 428.756" stroke="#FFC67E" stroke-opacity="0.55" stroke-width="4.75" stroke-miterlimit="10"/>
<path d="M788.828 314.96L631.213 183.899" stroke="#FFC67E" stroke-opacity="0.55" stroke-width="4.75" stroke-miterlimit="10"/>
<path d="M771.406 259.812L486.049 265.385" stroke="#FFC67E" stroke-opacity="0.55" stroke-width="4.75" stroke-miterlimit="10"/>
<path d="M775.573 235.722L524.881 191.979" stroke="#FFC67E" stroke-opacity="0.55" stroke-width="4.75" stroke-miterlimit="10"/>
<path d="M778.858 276.856L573.909 420.908" stroke="#FFC67E" stroke-opacity="0.55" stroke-width="4.75" stroke-miterlimit="10"/>
<path d="M554.938 405.644L667.268 94.515" stroke="#FFC67E" stroke-opacity="0.55" stroke-width="4.75" stroke-miterlimit="10"/>
</g>
<path d="M465.928 170.625C465.928 207.656 451.22 243.171 425.038 269.359C398.857 295.547 363.346 310.264 326.315 310.273C289.284 310.282 253.766 295.583 227.571 269.408C201.377 243.233 186.651 207.726 186.633 170.695C186.614 133.664 201.304 98.1425 227.473 71.9414C253.641 45.7404 289.145 31.0057 326.175 30.9779C363.206 30.9502 398.732 45.6316 424.939 71.7933C451.147 97.9551 465.891 133.455 465.928 170.486" stroke="#1072E5" stroke-opacity="0.55" stroke-width="4.75" stroke-miterlimit="10"/>
<path d="M387.816 263.868C372.572 273.928 355.094 280.098 336.913 281.836C318.732 283.575 300.401 280.829 283.527 273.839C266.653 266.85 251.75 255.83 240.123 241.745C228.496 227.659 220.5 210.938 216.835 193.045" stroke="#1072E5" stroke-opacity="0.55" stroke-width="4.75" stroke-miterlimit="10"/>
<path d="M216.835 148.206C221.225 126.772 231.813 107.099 247.283 91.6289C262.754 76.1583 282.427 65.5708 303.86 61.1802" stroke="#1072E5" stroke-opacity="0.55" stroke-width="4.75" stroke-miterlimit="10"/>
<path d="M348.7 61.1802C362.653 64.0383 375.93 69.5379 387.817 77.3827" stroke="#1072E5" stroke-opacity="0.55" stroke-width="4.75" stroke-miterlimit="10"/>
<path d="M419.523 109.089C427.368 120.976 432.867 134.253 435.725 148.206" stroke="#1072E5" stroke-opacity="0.55" stroke-width="4.75" stroke-miterlimit="10"/>
<path d="M435.725 193.045C432.867 206.998 427.368 220.275 419.523 232.162" stroke="#1072E5" stroke-opacity="0.55" stroke-width="4.75" stroke-miterlimit="10"/>
<path d="M346.389 260.682C346.389 266.015 344.271 271.129 340.501 274.9C336.731 278.671 331.617 280.79 326.285 280.792C320.953 280.793 315.838 278.676 312.066 274.907C308.294 271.138 306.173 266.025 306.171 260.693C306.168 255.36 308.284 250.245 312.052 246.472C315.82 242.699 320.932 240.577 326.265 240.573C331.597 240.569 336.713 242.683 340.487 246.451C344.261 250.218 346.384 255.33 346.389 260.662" stroke="#1072E5" stroke-opacity="0.55" stroke-width="4.75" stroke-miterlimit="10"/>
<path d="M331.308 260.682C331.308 262.016 330.778 263.294 329.836 264.237C328.893 265.18 327.615 265.709 326.282 265.71C324.948 265.71 323.67 265.181 322.727 264.239C321.784 263.296 321.254 262.018 321.253 260.685C321.252 259.352 321.781 258.073 322.723 257.13C323.665 256.187 324.943 255.656 326.276 255.655C327.61 255.654 328.889 256.183 329.832 257.125C330.775 258.066 331.306 259.344 331.308 260.677" stroke="#1072E5" stroke-opacity="0.55" stroke-width="4.75" stroke-miterlimit="10"/>
<path d="M387.816 263.868C386.72 259.488 386.777 254.898 387.982 250.546C389.187 246.195 391.498 242.229 394.691 239.036C397.884 235.843 401.849 233.532 406.201 232.327C410.553 231.122 415.142 231.065 419.523 232.162" stroke="#1072E5" stroke-opacity="0.55" stroke-width="4.75" stroke-miterlimit="10"/>
<path d="M394.067 258.964C394.067 259.406 393.891 259.83 393.579 260.143C393.266 260.456 392.842 260.632 392.399 260.632C391.957 260.632 391.533 260.456 391.22 260.144C390.907 259.831 390.731 259.407 390.731 258.965C390.731 258.522 390.906 258.098 391.219 257.785C391.531 257.472 391.955 257.296 392.398 257.296C392.84 257.296 393.264 257.471 393.577 257.783C393.89 258.096 394.067 258.52 394.067 258.962" fill="#1072E5" fill-opacity="0.55"/>
<path d="M400.117 242.794C400.117 243.237 399.941 243.661 399.628 243.974C399.316 244.286 398.892 244.462 398.449 244.462C398.007 244.462 397.583 244.287 397.27 243.974C396.957 243.661 396.781 243.237 396.781 242.795C396.781 242.353 396.956 241.928 397.269 241.616C397.581 241.303 398.005 241.127 398.448 241.126C398.89 241.126 399.314 241.301 399.627 241.614C399.94 241.926 400.116 242.35 400.117 242.793" fill="#1072E5" fill-opacity="0.55"/>
<path d="M416.286 236.744C416.286 237.186 416.111 237.61 415.798 237.923C415.485 238.236 415.061 238.412 414.619 238.412C414.176 238.412 413.752 238.236 413.439 237.924C413.126 237.611 412.95 237.187 412.95 236.745C412.95 236.302 413.125 235.878 413.438 235.565C413.751 235.252 414.175 235.076 414.617 235.076C415.059 235.076 415.484 235.251 415.797 235.563C416.11 235.876 416.286 236.3 416.286 236.742" fill="#1072E5" fill-opacity="0.55"/>
<path d="M435.725 193.045C431.853 190.723 428.648 187.437 426.423 183.508C424.198 179.579 423.028 175.141 423.028 170.625C423.028 166.11 424.198 161.672 426.423 157.743C428.648 153.813 431.853 150.528 435.725 148.206" stroke="#1072E5" stroke-opacity="0.55" stroke-width="4.75" stroke-miterlimit="10"/>
<path d="M434.522 127.873C434.522 129.206 433.992 130.484 433.05 131.427C432.107 132.37 430.829 132.9 429.496 132.9C428.163 132.9 426.884 132.371 425.941 131.429C424.998 130.487 424.468 129.208 424.467 127.875C424.466 126.542 424.995 125.263 425.937 124.32C426.879 123.377 428.157 122.846 429.491 122.845C430.824 122.844 432.103 123.373 433.046 124.315C433.99 125.257 434.52 126.535 434.522 127.868" stroke="#1072E5" stroke-opacity="0.55" stroke-width="4.75" stroke-miterlimit="10"/>
<path d="M419.523 109.089C415.142 110.185 410.553 110.128 406.201 108.923C401.849 107.719 397.884 105.407 394.691 102.214C391.498 99.0215 389.187 95.056 387.982 90.7043C386.777 86.3526 386.72 81.763 387.816 77.3827" stroke="#1072E5" stroke-opacity="0.55" stroke-width="4.75" stroke-miterlimit="10"/>
<path d="M348.7 61.1802C346.378 65.0527 343.092 68.2576 339.163 70.4828C335.234 72.7081 330.795 73.8776 326.28 73.8776C321.765 73.8776 317.326 72.7081 313.397 70.4828C309.468 68.2576 306.182 65.0527 303.86 61.1802" stroke="#1072E5" stroke-opacity="0.55" stroke-width="4.75" stroke-miterlimit="10"/>
<path d="M288.554 67.4115C288.554 68.7446 288.025 70.0231 287.082 70.9659C286.14 71.9086 284.861 72.4384 283.528 72.4388C282.195 72.4391 280.917 71.9099 279.974 70.9676C279.031 70.0253 278.5 68.7471 278.5 67.414C278.499 66.0809 279.028 64.8021 279.97 63.8588C280.912 62.9156 282.19 62.3852 283.523 62.3842C284.856 62.3832 286.135 62.9117 287.079 63.8535C288.022 64.7953 288.553 66.0733 288.554 67.4064" stroke="#1072E5" stroke-opacity="0.55" stroke-width="4.75" stroke-miterlimit="10"/>
<path d="M282.709 106.945C282.709 112.278 280.591 117.392 276.821 121.163C273.051 124.934 267.938 127.053 262.605 127.055C257.273 127.056 252.158 124.939 248.386 121.17C244.614 117.401 242.494 112.288 242.491 106.955C242.488 101.623 244.604 96.5079 248.372 92.7349C252.14 88.962 257.253 86.8402 262.585 86.8362C267.917 86.8322 273.033 88.9463 276.807 92.7136C280.581 96.4809 282.704 101.593 282.709 106.925" stroke="#1072E5" stroke-opacity="0.55" stroke-width="4.75" stroke-miterlimit="10"/>
<path d="M216.835 148.206C220.707 150.528 223.912 153.813 226.137 157.743C228.363 161.672 229.532 166.11 229.532 170.625C229.532 175.141 228.363 179.579 226.137 183.508C223.912 187.437 220.707 190.723 216.835 193.045" stroke="#1072E5" stroke-opacity="0.55" stroke-width="4.75" stroke-miterlimit="10"/>
<path d="M228.093 213.378C228.093 214.711 227.564 215.99 226.621 216.932C225.679 217.875 224.401 218.405 223.067 218.405C221.734 218.406 220.456 217.876 219.513 216.934C218.57 215.992 218.04 214.714 218.039 213.381C218.038 212.047 218.567 210.769 219.509 209.825C220.451 208.882 221.729 208.352 223.062 208.351C224.396 208.35 225.674 208.878 226.618 209.82C227.561 210.762 228.092 212.04 228.093 213.373" stroke="#1072E5" stroke-opacity="0.55" stroke-width="4.75" stroke-miterlimit="10"/>
<path d="M247.659 254.274C247.659 255.607 247.129 256.886 246.187 257.828C245.244 258.771 243.966 259.301 242.633 259.301C241.3 259.302 240.021 258.772 239.078 257.83C238.135 256.888 237.605 255.61 237.604 254.276C237.604 252.943 238.132 251.665 239.075 250.721C240.017 249.778 241.295 249.248 242.628 249.247C243.961 249.246 245.24 249.774 246.183 250.716C247.127 251.658 247.658 252.936 247.659 254.269" stroke="#1072E5" stroke-opacity="0.55" stroke-width="4.75" stroke-miterlimit="10"/>
<path d="M340.349 246.315L426.881 132.168" stroke="#1072E5" stroke-opacity="0.55" stroke-width="4.75" stroke-miterlimit="10"/>
<path d="M335.089 242.605L401.582 107.159" stroke="#1072E5" stroke-opacity="0.55" stroke-width="4.75" stroke-miterlimit="10"/>
<path d="M423.239 167.311L227.476 210.964" stroke="#1072E5" stroke-opacity="0.55" stroke-width="4.75" stroke-miterlimit="10"/>
<path d="M424.004 177.704H228.556" stroke="#1072E5" stroke-opacity="0.55" stroke-width="4.75" stroke-miterlimit="10"/>
<path d="M423.034 170.089L278.762 118.911" stroke="#1072E5" stroke-opacity="0.55" stroke-width="4.75" stroke-miterlimit="10"/>
<path d="M393.15 100.532L229.433 168.346" stroke="#1072E5" stroke-opacity="0.55" stroke-width="4.75" stroke-miterlimit="10"/>
<path d="M389.405 94.6072L227.891 161.508" stroke="#1072E5" stroke-opacity="0.55" stroke-width="4.75" stroke-miterlimit="10"/>
<g clip-path="url(#clip2_399_502)">
<path d="M490.044 474.905C490.044 518.59 472.693 560.487 441.807 591.38C410.92 622.274 369.028 639.636 325.343 639.647C281.658 639.658 239.758 622.317 208.856 591.439C177.955 560.56 160.583 518.673 160.561 474.988C160.539 431.303 177.869 389.398 208.74 358.488C239.61 327.579 281.494 310.197 325.179 310.164C368.864 310.131 410.773 327.451 441.69 358.314C472.607 389.177 490 431.056 490.044 474.74" stroke="white" stroke-opacity="0.75" stroke-width="4.75" stroke-miterlimit="10"/>
<path d="M269.233 594.177C244.883 582.73 224.619 564.104 211.166 540.802C197.713 517.5 191.714 490.639 193.975 463.827" stroke="white" stroke-opacity="0.75" stroke-width="4.75" stroke-miterlimit="10"/>
<path d="M250.045 366.712C265.02 356.296 281.993 349.102 299.892 345.585C317.791 342.068 336.225 342.305 354.027 346.281C371.83 350.256 388.613 357.884 403.315 368.682C418.017 379.48 430.318 393.211 439.438 409.009C448.559 424.806 454.301 442.324 456.301 460.455C458.301 478.587 456.515 496.935 451.057 514.341C445.599 531.746 436.587 547.829 424.592 561.571C412.597 575.314 397.88 586.416 381.372 594.177" stroke="white" stroke-opacity="0.75" stroke-width="4.75" stroke-miterlimit="10"/>
<path d="M269.233 594.177C274.154 583.441 282.053 574.344 291.992 567.966C301.931 561.589 313.493 558.198 325.302 558.198C337.112 558.198 348.673 561.589 358.612 567.966C368.551 574.344 376.451 583.441 381.372 594.177" stroke="white" stroke-opacity="0.75" stroke-width="4.75" stroke-miterlimit="10"/>
<path d="M451.3 540.802C451.3 543.947 450.051 546.964 447.827 549.188C445.603 551.412 442.587 552.662 439.441 552.663C436.296 552.664 433.279 551.415 431.054 549.192C428.829 546.969 427.579 543.953 427.577 540.808C427.575 537.662 428.823 534.645 431.046 532.42C433.269 530.194 436.284 528.943 439.43 528.94C442.575 528.938 445.592 530.185 447.818 532.407C450.044 534.629 451.297 537.645 451.3 540.79" stroke="white" stroke-opacity="0.75" stroke-width="4.75" stroke-miterlimit="10"/>
<path d="M444.21 433.647C444.21 446.228 439.213 458.294 430.317 467.192C421.422 476.089 409.357 481.089 396.776 481.092C384.195 481.095 372.127 476.101 363.228 467.208C354.328 458.315 349.325 446.252 349.319 433.67C349.312 421.089 354.303 409.02 363.194 400.119C372.085 391.217 384.147 386.211 396.729 386.201C409.31 386.192 421.38 391.18 430.284 400.068C439.188 408.957 444.197 421.018 444.21 433.599" stroke="white" stroke-opacity="0.75" stroke-width="4.75" stroke-miterlimit="10"/>
<path d="M250.045 366.712C256.882 376.341 260.81 387.731 261.364 399.527C261.917 411.324 259.073 423.031 253.168 433.259C247.263 443.486 238.547 451.803 228.054 457.222C217.561 462.641 205.733 464.933 193.976 463.827" stroke="white" stroke-opacity="0.75" stroke-width="4.75" stroke-miterlimit="10"/>
<path d="M223.027 540.802C223.027 543.947 221.778 546.964 219.554 549.188C217.331 551.412 214.314 552.662 211.169 552.663C208.024 552.664 205.007 551.415 202.782 549.192C200.557 546.969 199.306 543.953 199.305 540.808C199.303 537.662 200.551 534.645 202.774 532.42C204.996 530.194 208.012 528.943 211.157 528.94C214.302 528.938 217.32 530.185 219.546 532.407C221.772 534.629 223.024 537.645 223.027 540.79" stroke="white" stroke-opacity="0.75" stroke-width="4.75" stroke-miterlimit="10"/>
<path d="M339.766 559.918L374.18 475.373" stroke="white" stroke-opacity="0.75" stroke-width="4.75" stroke-miterlimit="10"/>
<path d="M244.355 445.021L418.129 611.004" stroke="white" stroke-opacity="0.75" stroke-width="4.75" stroke-miterlimit="10"/>
<path d="M248.941 439.632L445.074 588.017" stroke="white" stroke-opacity="0.75" stroke-width="4.75" stroke-miterlimit="10"/>
<path d="M261.213 397.236L460.277 380.451" stroke="white" stroke-opacity="0.75" stroke-width="4.75" stroke-miterlimit="10"/>
</g>
</g>
<defs>
<clipPath id="clip0_399_502">
<rect width="980" height="658" fill="white"/>
</clipPath>
<clipPath id="clip1_399_502">
<rect width="444.602" height="444.602" fill="white" transform="translate(371.107 123.77) rotate(-12.6021)"/>
</clipPath>
<clipPath id="clip2_399_502">
<rect width="366.092" height="366.092" fill="white" transform="translate(160.561 291.696)"/>
</clipPath>
</defs>
</svg>
