<svg width="24" height="25" viewBox="0 0 24 25" fill="none" xmlns="http://www.w3.org/2000/svg">
<path d="M16.6 5.97512C15.9164 5.19404 15.5397 4.19095 15.54 3.15259H12.45V15.5637C12.4262 16.2353 12.1429 16.8715 11.6598 17.3382C11.1767 17.805 10.5315 18.0659 9.86 18.066C8.44 18.066 7.26 16.9049 7.26 15.4636C7.26 13.7421 8.92 12.4509 10.63 12.9814V9.81856C7.18 9.35815 4.16 12.0406 4.16 15.4636C4.16 18.7966 6.92 21.1687 9.85 21.1687C12.99 21.1687 15.54 18.6165 15.54 15.4636V9.16798C16.793 10.0686 18.2974 10.5519 19.84 10.5492V7.45645C19.84 7.45645 17.96 7.54653 16.6 5.97512Z" fill="white"/>
</svg>
